<?xml version="1.0" encoding="UTF-8" standalone="no"?>
<!DOCTYPE svg PUBLIC "-//W3C//DTD SVG 1.1//EN" "http://www.w3.org/Graphics/SVG/1.1/DTD/svg11.dtd">
<svg width="100%" height="100%" viewBox="0 0 256 256" version="1.1" xmlns="http://www.w3.org/2000/svg" xmlns:xlink="http://www.w3.org/1999/xlink" xml:space="preserve" xmlns:serif="http://www.serif.com/" style="fill-rule:evenodd;clip-rule:evenodd;stroke-linejoin:round;stroke-miterlimit:2;">
    <g transform="matrix(1.02694,0,0,1.04125,-2.98888,-0.350992)">
        <path d="M36.935,97.418C42.138,123.652 48.873,162.413 61.978,187.619C77.359,217.199 101.003,229.485 132.811,215.936C148.531,209.301 158.522,196.493 165.988,180.158C174.374,161.81 177.898,137.052 182.828,111.872C184.917,101.204 187.293,90.47 191.143,80.586C193.867,84.672 196.708,88.919 199.255,93.665C212.754,118.815 220.204,138.31 225.928,163.998C227.122,169.357 228.651,171.72 231.701,172.352C234.522,172.935 236.553,172.306 240.172,166.658C251.746,148.591 252.294,111.047 248.886,77.459C247.325,62.074 243.275,48.234 238.139,37.085C225.686,10.054 202.266,0.762 184.693,2.598C172.528,3.87 157.78,10.266 145.808,29.711C138.832,41.604 133.583,54.55 130.537,68.38C124.7,94.877 125.63,123.897 122.503,148.057C121.606,154.988 120.831,161.444 118.516,166.897C117.003,170.464 115.571,173.739 112.445,175.975C105.578,180.886 96.931,171.287 91.052,160.556C75.77,132.662 66.364,91.901 59.088,73.448C53.765,59.95 47.957,55.278 40.868,54.758C36.594,54.444 29.56,55.912 25.481,65.434C10.528,99.715 4.83,129.731 4.211,155.056C2.841,211.195 25.915,243.384 25.915,243.384C26.947,244.967 29.088,245.426 30.693,244.408C32.298,243.391 32.763,241.28 31.731,239.697C31.731,239.697 13.212,207.906 19.715,156.185C21.918,138.669 27.143,118.972 36.935,97.418Z" style="fill:url(#_Linear1);"/>
    </g>
    <defs>
        <linearGradient id="_Linear1" x1="0" y1="0" x2="1" y2="0" gradientUnits="userSpaceOnUse" gradientTransform="matrix(222.855,0,0,207.106,11.4462,137.987)"><stop offset="0" style="stop-color:rgb(92,117,103);stop-opacity:1"/><stop offset="1" style="stop-color:rgb(164,187,47);stop-opacity:1"/></linearGradient>
    </defs>
</svg>
